<?xml version="1.0" encoding="UTF-8" standalone="no"?>
<!DOCTYPE svg PUBLIC "-//W3C//DTD SVG 1.1//EN"
 "http://www.w3.org/Graphics/SVG/1.1/DTD/svg11.dtd">
<!-- Generated by graphviz version 13.1.1 (20250719.2154)
 -->
<!-- Title: fetch_data_result Pages: 1 -->
<svg width="655pt" height="108pt"
 viewBox="0.00 0.00 655.00 108.00" xmlns="http://www.w3.org/2000/svg" xmlns:xlink="http://www.w3.org/1999/xlink">
<g id="graph0" class="graph" transform="scale(1 1) rotate(0) translate(4 104)">
<title>fetch_data_result</title>
<polygon fill="#fafafa" stroke="none" points="-4,4 -4,-104 650.59,-104 650.59,4 -4,4"/>
<!-- api -->
<g id="node1" class="node">
<title>api</title>
<path fill="#fff176" stroke="black" d="M155.37,-70.7C155.37,-73.24 120.55,-75.3 77.68,-75.3 34.82,-75.3 0,-73.24 0,-70.7 0,-70.7 0,-29.3 0,-29.3 0,-26.76 34.82,-24.7 77.68,-24.7 120.55,-24.7 155.37,-26.76 155.37,-29.3 155.37,-29.3 155.37,-70.7 155.37,-70.7"/>
<path fill="none" stroke="black" d="M155.37,-70.7C155.37,-68.16 120.55,-66.1 77.68,-66.1 34.82,-66.1 0,-68.16 0,-70.7"/>
<text xml:space="preserve" text-anchor="middle" x="77.68" y="-53.6" font-family="Arial" font-size="12.00">API Центрального Банка</text>
<text xml:space="preserve" text-anchor="middle" x="77.68" y="-39.2" font-family="Arial" font-size="12.00">📡 Источник данных</text>
</g>
<!-- script -->
<g id="node2" class="node">
<title>script</title>
<path fill="#8bc34a" stroke="black" d="M377.73,-68.4C377.73,-68.4 265.71,-68.4 265.71,-68.4 259.71,-68.4 253.71,-62.4 253.71,-56.4 253.71,-56.4 253.71,-43.6 253.71,-43.6 253.71,-37.6 259.71,-31.6 265.71,-31.6 265.71,-31.6 377.73,-31.6 377.73,-31.6 383.73,-31.6 389.73,-37.6 389.73,-43.6 389.73,-43.6 389.73,-56.4 389.73,-56.4 389.73,-62.4 383.73,-68.4 377.73,-68.4"/>
<text xml:space="preserve" text-anchor="middle" x="321.72" y="-53.6" font-family="Arial" font-size="12.00" fill="white">fetch_data.py</text>
<text xml:space="preserve" text-anchor="middle" x="321.72" y="-39.2" font-family="Arial" font-size="12.00" fill="white">⬇️ Загрузка данных</text>
</g>
<!-- api&#45;&gt;script -->
<g id="edge1" class="edge">
<title>api&#45;&gt;script</title>
<path fill="none" stroke="#558b2f" stroke-width="2" d="M155.6,-50C182.72,-50 213.27,-50 240.65,-50"/>
<polygon fill="#558b2f" stroke="#558b2f" stroke-width="2" points="240.37,-53.5 250.37,-50 240.37,-46.5 240.37,-53.5"/>
<text xml:space="preserve" text-anchor="middle" x="204.54" y="-66.5" font-family="Arial" font-size="11.00">Запрос GET</text>
<text xml:space="preserve" text-anchor="middle" x="204.54" y="-53.3" font-family="Arial" font-size="11.00">USD/UZS</text>
</g>
<!-- raw_data -->
<g id="node3" class="node">
<title>raw_data</title>
<polygon fill="#fff8e1" stroke="black" points="640.59,-100 512.53,-100 512.53,0 646.59,0 646.59,-94 640.59,-100"/>
<polyline fill="none" stroke="black" points="640.59,-100 640.59,-94"/>
<polyline fill="none" stroke="black" points="646.59,-94 640.59,-94"/>
<polygon fill="none" stroke="black" points="521.53,-77 521.53,-95 637.59,-95 637.59,-77 521.53,-77"/>
<text xml:space="preserve" text-anchor="start" x="524.53" y="-84" font-family="Arial" font-weight="bold" font-size="10.00">data/raw/usd_rates.csv</text>
<polygon fill="none" stroke="black" points="521.53,-59 521.53,-77 584.28,-77 584.28,-59 521.53,-59"/>
<text xml:space="preserve" text-anchor="start" x="542.62" y="-66" font-family="Arial" font-weight="bold" font-size="10.00">date</text>
<polygon fill="none" stroke="black" points="584.28,-59 584.28,-77 637.59,-77 637.59,-59 584.28,-59"/>
<text xml:space="preserve" text-anchor="start" x="601.76" y="-66" font-family="Arial" font-weight="bold" font-size="10.00">rate</text>
<polygon fill="none" stroke="black" points="521.53,-41 521.53,-59 584.28,-59 584.28,-41 521.53,-41"/>
<text xml:space="preserve" text-anchor="start" x="527.33" y="-47" font-family="Arial" font-size="10.00">2025&#45;11&#45;22</text>
<polygon fill="none" stroke="black" points="584.28,-41 584.28,-59 637.59,-59 637.59,-41 584.28,-41"/>
<text xml:space="preserve" text-anchor="start" x="590.08" y="-47" font-family="Arial" font-size="10.00">12512.10</text>
<polygon fill="none" stroke="black" points="521.53,-23 521.53,-41 584.28,-41 584.28,-23 521.53,-23"/>
<text xml:space="preserve" text-anchor="start" x="527.33" y="-29" font-family="Arial" font-size="10.00">2025&#45;11&#45;23</text>
<polygon fill="none" stroke="black" points="584.28,-23 584.28,-41 637.59,-41 637.59,-23 584.28,-23"/>
<text xml:space="preserve" text-anchor="start" x="597.03" y="-29" font-family="Arial" font-size="10.00">12400</text>
<polygon fill="none" stroke="black" points="521.53,-5 521.53,-23 584.28,-23 584.28,-5 521.53,-5"/>
<text xml:space="preserve" text-anchor="start" x="527.33" y="-11" font-family="Arial" font-size="10.00">2025&#45;11&#45;24</text>
<polygon fill="none" stroke="black" points="584.28,-5 584.28,-23 637.59,-23 637.59,-5 584.28,-5"/>
<text xml:space="preserve" text-anchor="start" x="597.03" y="-11" font-family="Arial" font-size="10.00">12380</text>
<polygon fill="none" stroke="black" points="520.53,-4 520.53,-96 638.59,-96 638.59,-4 520.53,-4"/>
</g>
<!-- script&#45;&gt;raw_data -->
<g id="edge2" class="edge">
<title>script&#45;&gt;raw_data</title>
<path fill="none" stroke="#558b2f" stroke-width="2" d="M389.94,-50C423.56,-50 464.47,-50 499.58,-50"/>
<polygon fill="#558b2f" stroke="#558b2f" stroke-width="2" points="499.2,-53.5 509.2,-50 499.2,-46.5 499.2,-53.5"/>
<text xml:space="preserve" text-anchor="middle" x="451.13" y="-53.3" font-family="Arial" font-size="11.00">Сохранение CSV</text>
</g>
</g>
</svg>
