<?xml version="1.0" encoding="UTF-8" standalone="no"?>
<!DOCTYPE svg PUBLIC "-//W3C//DTD SVG 1.1//EN"
 "http://www.w3.org/Graphics/SVG/1.1/DTD/svg11.dtd">
<!-- Generated by graphviz version 13.1.1 (20250719.2154)
 -->
<!-- Title: TimeSeriesPipelineVertical Pages: 1 -->
<svg width="857pt" height="903pt"
 viewBox="0.00 0.00 857.00 903.00" xmlns="http://www.w3.org/2000/svg" xmlns:xlink="http://www.w3.org/1999/xlink">
<g id="graph0" class="graph" transform="scale(1 1) rotate(0) translate(4 899.18)">
<title>TimeSeriesPipelineVertical</title>
<polygon fill="#fafafa" stroke="none" points="-4,4 -4,-899.18 852.74,-899.18 852.74,4 -4,4"/>
<g id="clust1" class="cluster">
<title>cluster_ingest</title>
<path fill="#f3e5f5" stroke="black" d="M166.74,-594.38C166.74,-594.38 396.74,-594.38 396.74,-594.38 402.74,-594.38 408.74,-600.38 408.74,-606.38 408.74,-606.38 408.74,-875.18 408.74,-875.18 408.74,-881.18 402.74,-887.18 396.74,-887.18 396.74,-887.18 166.74,-887.18 166.74,-887.18 160.74,-887.18 154.74,-881.18 154.74,-875.18 154.74,-875.18 154.74,-606.38 154.74,-606.38 154.74,-600.38 160.74,-594.38 166.74,-594.38"/>
<text xml:space="preserve" text-anchor="middle" x="281.74" y="-870.58" font-family="Times,serif" font-size="14.00">1️⃣ Загрузка и предобработка данных</text>
</g>
<g id="clust2" class="cluster">
<title>cluster_train</title>
<path fill="#e8f5e9" stroke="black" d="M196.74,-342.38C196.74,-342.38 484.74,-342.38 484.74,-342.38 490.74,-342.38 496.74,-348.38 496.74,-354.38 496.74,-354.38 496.74,-574.38 496.74,-574.38 496.74,-580.38 490.74,-586.38 484.74,-586.38 484.74,-586.38 196.74,-586.38 196.74,-586.38 190.74,-586.38 184.74,-580.38 184.74,-574.38 184.74,-574.38 184.74,-354.38 184.74,-354.38 184.74,-348.38 190.74,-342.38 196.74,-342.38"/>
<text xml:space="preserve" text-anchor="middle" x="340.74" y="-569.78" font-family="Times,serif" font-size="14.00">2️⃣ Обучение моделей</text>
</g>
<g id="clust3" class="cluster">
<title>cluster_artifacts</title>
<path fill="#fafafa" stroke="#bdbdbd" stroke-dasharray="5,2" d="M111.74,-244.93C111.74,-244.93 816.74,-244.93 816.74,-244.93 822.74,-244.93 828.74,-250.93 828.74,-256.93 828.74,-256.93 828.74,-322.38 828.74,-322.38 828.74,-328.38 822.74,-334.38 816.74,-334.38 816.74,-334.38 111.74,-334.38 111.74,-334.38 105.74,-334.38 99.74,-328.38 99.74,-322.38 99.74,-322.38 99.74,-256.93 99.74,-256.93 99.74,-250.93 105.74,-244.93 111.74,-244.93"/>
<text xml:space="preserve" text-anchor="middle" x="464.24" y="-317.78" font-family="Times,serif" font-size="14.00">🗂️ Артефакты обучения</text>
</g>
<g id="clust4" class="cluster">
<title>cluster_inference</title>
<path fill="#fff3e0" stroke="black" d="M35.74,-88.13C35.74,-88.13 363.74,-88.13 363.74,-88.13 369.74,-88.13 375.74,-94.13 375.74,-100.13 375.74,-100.13 375.74,-224.93 375.74,-224.93 375.74,-230.93 369.74,-236.93 363.74,-236.93 363.74,-236.93 35.74,-236.93 35.74,-236.93 29.74,-236.93 23.74,-230.93 23.74,-224.93 23.74,-224.93 23.74,-100.13 23.74,-100.13 23.74,-94.13 29.74,-88.13 35.74,-88.13"/>
<text xml:space="preserve" text-anchor="middle" x="199.74" y="-220.33" font-family="Times,serif" font-size="14.00">3️⃣ Прогнозирование (Inference)</text>
</g>
<!-- fetch_data -->
<g id="node1" class="node">
<title>fetch_data</title>
<path fill="#c5e1a5" stroke="black" d="M367.26,-854.38C367.26,-854.38 232.23,-854.38 232.23,-854.38 226.23,-854.38 220.23,-848.38 220.23,-842.38 220.23,-842.38 220.23,-830.38 220.23,-830.38 220.23,-824.38 226.23,-818.38 232.23,-818.38 232.23,-818.38 367.26,-818.38 367.26,-818.38 373.26,-818.38 379.26,-824.38 379.26,-830.38 379.26,-830.38 379.26,-842.38 379.26,-842.38 379.26,-848.38 373.26,-854.38 367.26,-854.38"/>
<text xml:space="preserve" text-anchor="middle" x="299.74" y="-839.68" font-family="Arial" font-size="11.00">fetch_data.py</text>
<text xml:space="preserve" text-anchor="middle" x="299.74" y="-826.48" font-family="Arial" font-size="11.00">📡 API Центрального Банка</text>
</g>
<!-- data_raw -->
<g id="node2" class="node">
<title>data_raw</title>
<path fill="#ffe082" stroke="black" d="M334.55,-782.38C334.55,-782.38 264.93,-782.38 264.93,-782.38 258.93,-782.38 252.93,-776.38 252.93,-770.38 252.93,-770.38 252.93,-758.38 252.93,-758.38 252.93,-752.38 258.93,-746.38 264.93,-746.38 264.93,-746.38 334.55,-746.38 334.55,-746.38 340.55,-746.38 346.55,-752.38 346.55,-758.38 346.55,-758.38 346.55,-770.38 346.55,-770.38 346.55,-776.38 340.55,-782.38 334.55,-782.38"/>
<text xml:space="preserve" text-anchor="middle" x="299.74" y="-767.68" font-family="Arial" font-size="11.00">usd_rates.csv</text>
<text xml:space="preserve" text-anchor="middle" x="299.74" y="-754.48" font-family="Arial" font-size="11.00">(сырые данные)</text>
</g>
<!-- fetch_data&#45;&gt;data_raw -->
<g id="edge1" class="edge">
<title>fetch_data&#45;&gt;data_raw</title>
<path fill="none" stroke="black" d="M299.74,-818.08C299.74,-810.79 299.74,-802.11 299.74,-793.92"/>
<polygon fill="black" stroke="black" points="303.24,-794 299.74,-784 296.24,-794 303.24,-794"/>
</g>
<!-- preprocess -->
<g id="node3" class="node">
<title>preprocess</title>
<path fill="#4fc3f7" stroke="black" d="M367.9,-710.38C367.9,-710.38 195.58,-710.38 195.58,-710.38 189.58,-710.38 183.58,-704.38 183.58,-698.38 183.58,-698.38 183.58,-686.38 183.58,-686.38 183.58,-680.38 189.58,-674.38 195.58,-674.38 195.58,-674.38 367.9,-674.38 367.9,-674.38 373.9,-674.38 379.9,-680.38 379.9,-686.38 379.9,-686.38 379.9,-698.38 379.9,-698.38 379.9,-704.38 373.9,-710.38 367.9,-710.38"/>
<text xml:space="preserve" text-anchor="middle" x="281.74" y="-695.68" font-family="Arial" font-size="11.00">preprocess.py</text>
<text xml:space="preserve" text-anchor="middle" x="281.74" y="-682.48" font-family="Arial" font-size="11.00">🧹 очистка, заполнение, признаки</text>
</g>
<!-- data_raw&#45;&gt;preprocess -->
<g id="edge2" class="edge">
<title>data_raw&#45;&gt;preprocess</title>
<path fill="none" stroke="black" d="M295.29,-746.08C293.4,-738.7 291.13,-729.91 289.01,-721.63"/>
<polygon fill="black" stroke="black" points="292.4,-720.77 286.52,-711.95 285.62,-722.51 292.4,-720.77"/>
</g>
<!-- app -->
<g id="node22" class="node">
<title>app</title>
<path fill="#4dd0e1" stroke="black" d="M487.68,-41.22C487.68,-41.22 386.79,-58.27 386.79,-58.27 381.27,-59.2 370.22,-59.2 364.69,-58.27 364.69,-58.27 263.8,-41.22 263.8,-41.22 258.27,-40.29 252.77,-33.76 252.79,-28.15 252.79,-28.15 252.83,-16.95 252.83,-16.95 252.85,-11.34 258.47,-5.74 264.07,-5.74 264.07,-5.74 487.41,-5.74 487.41,-5.74 493.02,-5.74 498.64,-11.34 498.66,-16.95 498.66,-16.95 498.69,-28.15 498.69,-28.15 498.71,-33.76 493.21,-40.29 487.68,-41.22"/>
<text xml:space="preserve" text-anchor="middle" x="375.74" y="-33.37" font-family="Arial" font-size="11.00" fill="white">app.py</text>
<text xml:space="preserve" text-anchor="middle" x="375.74" y="-20.17" font-family="Arial" font-size="11.00" fill="white">🖥️ Streamlit Dashboard</text>
</g>
<!-- data_raw&#45;&gt;app -->
<g id="edge22" class="edge">
<title>data_raw&#45;&gt;app</title>
<path fill="none" stroke="black" d="M347.02,-761.26C480.19,-754.02 848.74,-724.63 848.74,-621.38 848.74,-621.38 848.74,-621.38 848.74,-185.13 848.74,-109.72 628.6,-65.5 488.69,-45.01"/>
<polygon fill="black" stroke="black" points="489.4,-41.57 479,-43.61 488.4,-48.5 489.4,-41.57"/>
</g>
<!-- data_processed -->
<g id="node4" class="node">
<title>data_processed</title>
<path fill="#fff3e0" stroke="black" d="M304.77,-638.38C304.77,-638.38 202.71,-638.38 202.71,-638.38 196.71,-638.38 190.71,-632.38 190.71,-626.38 190.71,-626.38 190.71,-614.38 190.71,-614.38 190.71,-608.38 196.71,-602.38 202.71,-602.38 202.71,-602.38 304.77,-602.38 304.77,-602.38 310.77,-602.38 316.77,-608.38 316.77,-614.38 316.77,-614.38 316.77,-626.38 316.77,-626.38 316.77,-632.38 310.77,-638.38 304.77,-638.38"/>
<text xml:space="preserve" text-anchor="middle" x="253.74" y="-623.68" font-family="Arial" font-size="11.00">usd_preprocessed.csv</text>
<text xml:space="preserve" text-anchor="middle" x="253.74" y="-610.48" font-family="Arial" font-size="11.00">(готовые данные)</text>
</g>
<!-- preprocess&#45;&gt;data_processed -->
<g id="edge3" class="edge">
<title>preprocess&#45;&gt;data_processed</title>
<path fill="none" stroke="black" d="M274.82,-674.08C271.8,-666.53 268.19,-657.5 264.81,-649.06"/>
<polygon fill="black" stroke="black" points="268.11,-647.88 261.15,-639.89 261.61,-650.48 268.11,-647.88"/>
</g>
<!-- dataset -->
<g id="node6" class="node">
<title>dataset</title>
<path fill="#e0f7fa" stroke="black" d="M477.03,-553.58C477.03,-553.58 344.45,-553.58 344.45,-553.58 338.45,-553.58 332.45,-547.58 332.45,-541.58 332.45,-541.58 332.45,-517.98 332.45,-517.98 332.45,-511.98 338.45,-505.98 344.45,-505.98 344.45,-505.98 477.03,-505.98 477.03,-505.98 483.03,-505.98 489.03,-511.98 489.03,-517.98 489.03,-517.98 489.03,-541.58 489.03,-541.58 489.03,-547.58 483.03,-553.58 477.03,-553.58"/>
<text xml:space="preserve" text-anchor="middle" x="410.74" y="-539.68" font-family="Arial" font-size="11.00">dataset.py</text>
<text xml:space="preserve" text-anchor="middle" x="410.74" y="-526.48" font-family="Arial" font-size="11.00">🔧 масштабирование, окна,</text>
<text xml:space="preserve" text-anchor="middle" x="410.74" y="-513.28" font-family="Arial" font-size="11.00">train/test split</text>
</g>
<!-- data_processed&#45;&gt;dataset -->
<g id="edge4" class="edge">
<title>data_processed&#45;&gt;dataset</title>
<path fill="none" stroke="black" d="M293.06,-601.93C303.19,-597.14 313.98,-591.77 323.74,-586.38 338.14,-578.43 353.39,-569.04 367.03,-560.26"/>
<polygon fill="black" stroke="black" points="368.9,-563.22 375.38,-554.83 365.08,-557.35 368.9,-563.22"/>
</g>
<!-- prophet -->
<g id="node10" class="node">
<title>prophet</title>
<path fill="#90a4ae" stroke="black" d="M302.62,-547.78C302.62,-547.78 204.86,-547.78 204.86,-547.78 198.86,-547.78 192.86,-541.78 192.86,-535.78 192.86,-535.78 192.86,-523.78 192.86,-523.78 192.86,-517.78 198.86,-511.78 204.86,-511.78 204.86,-511.78 302.62,-511.78 302.62,-511.78 308.62,-511.78 314.62,-517.78 314.62,-523.78 314.62,-523.78 314.62,-535.78 314.62,-535.78 314.62,-541.78 308.62,-547.78 302.62,-547.78"/>
<text xml:space="preserve" text-anchor="middle" x="253.74" y="-533.08" font-family="Arial" font-size="11.00" fill="white">prophet_model.py</text>
<text xml:space="preserve" text-anchor="middle" x="253.74" y="-519.88" font-family="Arial" font-size="11.00" fill="white">🔮 обучение Prophet</text>
</g>
<!-- data_processed&#45;&gt;prophet -->
<g id="edge9" class="edge">
<title>data_processed&#45;&gt;prophet</title>
<path fill="none" stroke="black" d="M253.74,-602.3C253.74,-590.12 253.74,-573.46 253.74,-559.29"/>
<polygon fill="black" stroke="black" points="257.24,-559.63 253.74,-549.63 250.24,-559.63 257.24,-559.63"/>
</g>
<!-- predict -->
<g id="node18" class="node">
<title>predict</title>
<path fill="#ffb74d" stroke="black" d="M356.12,-204.13C356.12,-204.13 203.37,-204.13 203.37,-204.13 197.37,-204.13 191.37,-198.13 191.37,-192.13 191.37,-192.13 191.37,-180.13 191.37,-180.13 191.37,-174.13 197.37,-168.13 203.37,-168.13 203.37,-168.13 356.12,-168.13 356.12,-168.13 362.12,-168.13 368.12,-174.13 368.12,-180.13 368.12,-180.13 368.12,-192.13 368.12,-192.13 368.12,-198.13 362.12,-204.13 356.12,-204.13"/>
<text xml:space="preserve" text-anchor="middle" x="279.74" y="-189.43" font-family="Arial" font-size="11.00">predict.py</text>
<text xml:space="preserve" text-anchor="middle" x="279.74" y="-176.23" font-family="Arial" font-size="11.00">📈 LSTM итеративный прогноз</text>
</g>
<!-- data_processed&#45;&gt;predict -->
<g id="edge16" class="edge">
<title>data_processed&#45;&gt;predict</title>
<path fill="none" stroke="black" d="M206.18,-602.05C197.26,-597.68 188.35,-592.46 180.74,-586.38 122.62,-539.99 79.74,-527.35 79.74,-452.98 79.74,-452.98 79.74,-452.98 79.74,-373.18 79.74,-315.74 54.47,-284.89 95.74,-244.93 109.69,-231.43 164.1,-242.35 182.74,-236.93 203.71,-230.84 225.48,-220.12 243.07,-210.19"/>
<polygon fill="black" stroke="black" points="244.71,-213.28 251.59,-205.23 241.19,-207.23 244.71,-213.28"/>
</g>
<!-- data_processed&#45;&gt;app -->
<g id="edge23" class="edge">
<title>data_processed&#45;&gt;app</title>
<path fill="none" stroke="black" d="M190.39,-618.54C157.32,-615.35 117.64,-606.95 87.74,-586.38 30.02,-546.67 3.74,-523.05 3.74,-452.98 3.74,-452.98 3.74,-452.98 3.74,-185.13 3.74,-141.44 -11.22,-118.96 19.74,-88.13 50.71,-57.3 153.81,-43.13 241.13,-36.61"/>
<polygon fill="black" stroke="black" points="241.28,-40.11 251.01,-35.9 240.78,-33.13 241.28,-40.11"/>
</g>
<!-- spacer1 -->
<g id="node5" class="node">
<title>spacer1</title>
<path fill="lightgrey" stroke="none" d="M468.34,-839.98C468.34,-839.98 419.14,-839.98 419.14,-839.98 417.94,-839.98 416.74,-838.78 416.74,-837.58 416.74,-837.58 416.74,-835.18 416.74,-835.18 416.74,-833.98 417.94,-832.78 419.14,-832.78 419.14,-832.78 468.34,-832.78 468.34,-832.78 469.54,-832.78 470.74,-833.98 470.74,-835.18 470.74,-835.18 470.74,-837.58 470.74,-837.58 470.74,-838.78 469.54,-839.98 468.34,-839.98"/>
</g>
<!-- scaler -->
<g id="node7" class="node">
<title>scaler</title>
<path fill="#c8e6c9" stroke="black" d="M340.58,-466.71C340.58,-468.52 321.38,-469.98 297.74,-469.98 274.1,-469.98 254.9,-468.52 254.9,-466.71 254.9,-466.71 254.9,-437.26 254.9,-437.26 254.9,-435.45 274.1,-433.98 297.74,-433.98 321.38,-433.98 340.58,-435.45 340.58,-437.26 340.58,-437.26 340.58,-466.71 340.58,-466.71"/>
<path fill="none" stroke="black" d="M340.58,-466.71C340.58,-464.9 321.38,-463.44 297.74,-463.44 274.1,-463.44 254.9,-464.9 254.9,-466.71"/>
<text xml:space="preserve" text-anchor="middle" x="297.74" y="-448.68" font-family="Arial" font-size="11.00">MinMaxScaler</text>
</g>
<!-- dataset&#45;&gt;scaler -->
<g id="edge5" class="edge">
<title>dataset&#45;&gt;scaler</title>
<path fill="none" stroke="black" d="M376.22,-505.63C362.41,-496.36 346.51,-485.7 332.66,-476.4"/>
<polygon fill="black" stroke="black" points="334.95,-473.73 324.7,-471.06 331.05,-479.54 334.95,-473.73"/>
</g>
<!-- model_lstm -->
<g id="node8" class="node">
<title>model_lstm</title>
<path fill="#e1bee7" stroke="black" d="M477.2,-469.98C477.2,-469.98 370.29,-469.98 370.29,-469.98 364.29,-469.98 358.29,-463.98 358.29,-457.98 358.29,-457.98 358.29,-445.98 358.29,-445.98 358.29,-439.98 364.29,-433.98 370.29,-433.98 370.29,-433.98 477.2,-433.98 477.2,-433.98 483.2,-433.98 489.2,-439.98 489.2,-445.98 489.2,-445.98 489.2,-457.98 489.2,-457.98 489.2,-463.98 483.2,-469.98 477.2,-469.98"/>
<text xml:space="preserve" text-anchor="middle" x="423.74" y="-455.28" font-family="Arial" font-size="11.00">model_lstm.py</text>
<text xml:space="preserve" text-anchor="middle" x="423.74" y="-442.08" font-family="Arial" font-size="11.00">🧠 архитектура LSTM</text>
</g>
<!-- dataset&#45;&gt;model_lstm -->
<g id="edge6" class="edge">
<title>dataset&#45;&gt;model_lstm</title>
<path fill="none" stroke="black" d="M414.71,-505.63C416,-498.11 417.45,-489.68 418.8,-481.8"/>
<polygon fill="black" stroke="black" points="422.25,-482.4 420.49,-471.95 415.35,-481.22 422.25,-482.4"/>
</g>
<!-- scaler_out -->
<g id="node13" class="node">
<title>scaler_out</title>
<ellipse fill="#dcedc8" stroke="black" cx="625.74" cy="-277.26" rx="38.64" ry="18"/>
<text xml:space="preserve" text-anchor="middle" x="625.74" y="-273.96" font-family="Arial" font-size="11.00">scaler.pkl</text>
</g>
<!-- dataset&#45;&gt;scaler_out -->
<g id="edge13" class="edge">
<title>dataset&#45;&gt;scaler_out</title>
<path fill="none" stroke="black" d="M467.22,-505.62C485.15,-496.39 504.1,-484.47 518.74,-469.98 567.55,-421.68 600.65,-346.42 615.98,-306.06"/>
<polygon fill="black" stroke="black" points="619.2,-307.43 619.39,-296.84 612.64,-305.01 619.2,-307.43"/>
</g>
<!-- config -->
<g id="node14" class="node">
<title>config</title>
<path fill="#f0f4c3" stroke="black" d="M557.07,-295.26C557.07,-295.26 476.41,-295.26 476.41,-295.26 470.41,-295.26 464.41,-289.26 464.41,-283.26 464.41,-283.26 464.41,-271.26 464.41,-271.26 464.41,-265.26 470.41,-259.26 476.41,-259.26 476.41,-259.26 557.07,-259.26 557.07,-259.26 563.07,-259.26 569.07,-265.26 569.07,-271.26 569.07,-271.26 569.07,-283.26 569.07,-283.26 569.07,-289.26 563.07,-295.26 557.07,-295.26"/>
<text xml:space="preserve" text-anchor="middle" x="516.74" y="-273.96" font-family="Arial" font-size="11.00">model_config.json</text>
</g>
<!-- dataset&#45;&gt;config -->
<g id="edge14" class="edge">
<title>dataset&#45;&gt;config</title>
<path fill="none" stroke="black" d="M460.62,-505.63C474.91,-496.54 488.97,-484.7 497.74,-469.98 528.17,-418.95 525.52,-346.43 521.04,-306.82"/>
<polygon fill="black" stroke="black" points="524.55,-306.62 519.82,-297.14 517.6,-307.5 524.55,-306.62"/>
</g>
<!-- train -->
<g id="node9" class="node">
<title>train</title>
<path fill="#26a69a" stroke="black" d="M437.77,-397.98C437.77,-397.98 295.71,-397.98 295.71,-397.98 289.71,-397.98 283.71,-391.98 283.71,-385.98 283.71,-385.98 283.71,-362.38 283.71,-362.38 283.71,-356.38 289.71,-350.38 295.71,-350.38 295.71,-350.38 437.77,-350.38 437.77,-350.38 443.77,-350.38 449.77,-356.38 449.77,-362.38 449.77,-362.38 449.77,-385.98 449.77,-385.98 449.77,-391.98 443.77,-397.98 437.77,-397.98"/>
<text xml:space="preserve" text-anchor="middle" x="366.74" y="-384.08" font-family="Arial" font-size="11.00" fill="white">train.py</text>
<text xml:space="preserve" text-anchor="middle" x="366.74" y="-370.88" font-family="Arial" font-size="11.00" fill="white">🎯 обучение LSTM</text>
<text xml:space="preserve" text-anchor="middle" x="366.74" y="-357.68" font-family="Arial" font-size="11.00" fill="white">+ сохранение лучшей модели</text>
</g>
<!-- scaler&#45;&gt;train -->
<g id="edge7" class="edge">
<title>scaler&#45;&gt;train</title>
<path fill="none" stroke="black" d="M313.4,-433.78C320.7,-425.76 329.64,-415.94 338.09,-406.66"/>
<polygon fill="black" stroke="black" points="340.49,-409.22 344.63,-399.47 335.31,-404.51 340.49,-409.22"/>
</g>
<!-- model_lstm&#45;&gt;train -->
<g id="edge8" class="edge">
<title>model_lstm&#45;&gt;train</title>
<path fill="none" stroke="black" d="M410.81,-433.78C404.96,-426 397.84,-416.54 391.05,-407.51"/>
<polygon fill="black" stroke="black" points="393.88,-405.45 385.07,-399.56 388.29,-409.66 393.88,-405.45"/>
</g>
<!-- model_weights -->
<g id="node12" class="node">
<title>model_weights</title>
<ellipse fill="#f8bbd0" stroke="black" cx="188.74" cy="-277.26" rx="80.92" ry="24.32"/>
<text xml:space="preserve" text-anchor="middle" x="188.74" y="-280.56" font-family="Arial" font-size="11.00">lstm_usd_model.pth</text>
<text xml:space="preserve" text-anchor="middle" x="188.74" y="-267.36" font-family="Arial" font-size="11.00">(веса LSTM)</text>
</g>
<!-- train&#45;&gt;model_weights -->
<g id="edge10" class="edge">
<title>train&#45;&gt;model_weights</title>
<path fill="none" stroke="black" d="M310.11,-350.03C299.22,-345.15 288.02,-339.82 277.74,-334.38 261.72,-325.9 244.74,-315.56 229.96,-306.07"/>
<polygon fill="black" stroke="black" points="232.15,-303.33 221.86,-300.82 228.34,-309.2 232.15,-303.33"/>
</g>
<!-- metrics -->
<g id="node15" class="node">
<title>metrics</title>
<path fill="#ffe0b2" stroke="black" d="M434.26,-295.26C434.26,-295.26 299.23,-295.26 299.23,-295.26 293.23,-295.26 287.23,-289.26 287.23,-283.26 287.23,-283.26 287.23,-271.26 287.23,-271.26 287.23,-265.26 293.23,-259.26 299.23,-259.26 299.23,-259.26 434.26,-259.26 434.26,-259.26 440.26,-259.26 446.26,-265.26 446.26,-271.26 446.26,-271.26 446.26,-283.26 446.26,-283.26 446.26,-289.26 440.26,-295.26 434.26,-295.26"/>
<text xml:space="preserve" text-anchor="middle" x="366.74" y="-280.56" font-family="Arial" font-size="11.00">metrics.json</text>
<text xml:space="preserve" text-anchor="middle" x="366.74" y="-267.36" font-family="Arial" font-size="11.00">(LSTM/Prophet MAE, RMSE)</text>
</g>
<!-- train&#45;&gt;metrics -->
<g id="edge12" class="edge">
<title>train&#45;&gt;metrics</title>
<path fill="none" stroke="black" d="M366.74,-350.2C366.74,-337.22 366.74,-320.86 366.74,-307.03"/>
<polygon fill="black" stroke="black" points="370.24,-307.19 366.74,-297.19 363.24,-307.19 370.24,-307.19"/>
</g>
<!-- lstm_test_preds -->
<g id="node16" class="node">
<title>lstm_test_preds</title>
<path fill="#ffcdd2" stroke="black" d="M809.18,-295.26C809.18,-295.26 694.3,-295.26 694.3,-295.26 688.3,-295.26 682.3,-289.26 682.3,-283.26 682.3,-283.26 682.3,-271.26 682.3,-271.26 682.3,-265.26 688.3,-259.26 694.3,-259.26 694.3,-259.26 809.18,-259.26 809.18,-259.26 815.18,-259.26 821.18,-265.26 821.18,-271.26 821.18,-271.26 821.18,-283.26 821.18,-283.26 821.18,-289.26 815.18,-295.26 809.18,-295.26"/>
<text xml:space="preserve" text-anchor="middle" x="751.74" y="-273.96" font-family="Arial" font-size="11.00">lstm_test_predictions.csv</text>
</g>
<!-- train&#45;&gt;lstm_test_preds -->
<g id="edge11" class="edge">
<title>train&#45;&gt;lstm_test_preds</title>
<path fill="none" stroke="black" d="M450.27,-367.28C526.9,-361.02 634.31,-349.89 673.74,-334.38 692.34,-327.07 710.6,-314.31 724.78,-302.81"/>
<polygon fill="black" stroke="black" points="726.91,-305.59 732.31,-296.48 722.41,-300.24 726.91,-305.59"/>
</g>
<!-- prophet&#45;&gt;metrics -->
<g id="edge15" class="edge">
<title>prophet&#45;&gt;metrics</title>
<path fill="none" stroke="black" d="M250.74,-511.35C248.89,-499.68 246.69,-483.96 245.74,-469.98 241.81,-411.96 240.27,-389.23 274.74,-342.38 286.99,-325.73 304.9,-311.87 321.67,-301.34"/>
<polygon fill="black" stroke="black" points="323.29,-304.45 330.07,-296.3 319.69,-298.44 323.29,-304.45"/>
</g>
<!-- prophet_fc -->
<g id="node20" class="node">
<title>prophet_fc</title>
<path fill="#cfd8dc" stroke="black" d="M161.72,-204.13C161.72,-204.13 43.76,-204.13 43.76,-204.13 37.76,-204.13 31.76,-198.13 31.76,-192.13 31.76,-192.13 31.76,-180.13 31.76,-180.13 31.76,-174.13 37.76,-168.13 43.76,-168.13 43.76,-168.13 161.72,-168.13 161.72,-168.13 167.72,-168.13 173.72,-174.13 173.72,-180.13 173.72,-180.13 173.72,-192.13 173.72,-192.13 173.72,-198.13 167.72,-204.13 161.72,-204.13"/>
<text xml:space="preserve" text-anchor="middle" x="102.74" y="-189.43" font-family="Arial" font-size="11.00">usd_prophet_forecast.csv</text>
<text xml:space="preserve" text-anchor="middle" x="102.74" y="-176.23" font-family="Arial" font-size="11.00">(Prophet прогноз)</text>
</g>
<!-- prophet&#45;&gt;prophet_fc -->
<g id="edge21" class="edge">
<title>prophet&#45;&gt;prophet_fc</title>
<path fill="none" stroke="black" d="M232.3,-511.48C195.87,-480.52 123.18,-411.64 95.74,-334.38 81.75,-294.99 88.46,-245.93 95.15,-215.57"/>
<polygon fill="black" stroke="black" points="98.52,-216.54 97.42,-206.01 91.71,-214.93 98.52,-216.54"/>
</g>
<!-- spacer2 -->
<g id="node11" class="node">
<title>spacer2</title>
<path fill="lightgrey" stroke="none" d="M540.34,-839.98C540.34,-839.98 491.14,-839.98 491.14,-839.98 489.94,-839.98 488.74,-838.78 488.74,-837.58 488.74,-837.58 488.74,-835.18 488.74,-835.18 488.74,-833.98 489.94,-832.78 491.14,-832.78 491.14,-832.78 540.34,-832.78 540.34,-832.78 541.54,-832.78 542.74,-833.98 542.74,-835.18 542.74,-835.18 542.74,-837.58 542.74,-837.58 542.74,-838.78 541.54,-839.98 540.34,-839.98"/>
</g>
<!-- model_weights&#45;&gt;predict -->
<g id="edge17" class="edge">
<title>model_weights&#45;&gt;predict</title>
<path fill="none" stroke="black" d="M211.7,-253.77C224.61,-241.13 240.75,-225.32 254.08,-212.27"/>
<polygon fill="black" stroke="black" points="256.18,-215.11 260.87,-205.61 251.28,-210.11 256.18,-215.11"/>
</g>
<!-- scaler_out&#45;&gt;predict -->
<g id="edge18" class="edge">
<title>scaler_out&#45;&gt;predict</title>
<path fill="none" stroke="black" d="M606.61,-261.32C598.18,-255.4 587.89,-249.04 577.74,-244.93 514.42,-219.28 438.8,-204.79 379.59,-196.73"/>
<polygon fill="black" stroke="black" points="380.22,-193.28 369.85,-195.45 379.31,-200.22 380.22,-193.28"/>
</g>
<!-- config&#45;&gt;predict -->
<g id="edge19" class="edge">
<title>config&#45;&gt;predict</title>
<path fill="none" stroke="black" d="M485.21,-258.87C475.87,-254.05 465.52,-249.02 455.74,-244.93 422.15,-230.89 383.85,-217.97 351.58,-207.92"/>
<polygon fill="black" stroke="black" points="352.91,-204.67 342.33,-205.07 350.85,-211.36 352.91,-204.67"/>
</g>
<!-- metrics&#45;&gt;app -->
<g id="edge27" class="edge">
<title>metrics&#45;&gt;app</title>
<path fill="none" stroke="black" d="M373.79,-258.94C376.18,-252.19 378.55,-244.32 379.74,-236.93 390.25,-171.64 382.05,-154.23 379.74,-88.13 379.55,-82.71 379.26,-77.01 378.92,-71.38"/>
<polygon fill="black" stroke="black" points="382.43,-71.33 378.27,-61.59 375.44,-71.8 382.43,-71.33"/>
</g>
<!-- lstm_test_preds&#45;&gt;app -->
<g id="edge26" class="edge">
<title>lstm_test_preds&#45;&gt;app</title>
<path fill="none" stroke="black" d="M725,-258.82C661.32,-217.29 500.11,-112.17 420.97,-60.56"/>
<polygon fill="black" stroke="black" points="423.29,-57.9 413.01,-55.37 419.47,-63.76 423.29,-57.9"/>
</g>
<!-- spacer3 -->
<g id="node17" class="node">
<title>spacer3</title>
<path fill="lightgrey" stroke="none" d="M612.34,-839.98C612.34,-839.98 563.14,-839.98 563.14,-839.98 561.94,-839.98 560.74,-838.78 560.74,-837.58 560.74,-837.58 560.74,-835.18 560.74,-835.18 560.74,-833.98 561.94,-832.78 563.14,-832.78 563.14,-832.78 612.34,-832.78 612.34,-832.78 613.54,-832.78 614.74,-833.98 614.74,-835.18 614.74,-835.18 614.74,-837.58 614.74,-837.58 614.74,-838.78 613.54,-839.98 612.34,-839.98"/>
</g>
<!-- lstm_fc -->
<g id="node19" class="node">
<title>lstm_fc</title>
<path fill="#d7ccc8" stroke="black" d="M317.01,-132.13C317.01,-132.13 242.47,-132.13 242.47,-132.13 236.47,-132.13 230.47,-126.13 230.47,-120.13 230.47,-120.13 230.47,-108.13 230.47,-108.13 230.47,-102.13 236.47,-96.13 242.47,-96.13 242.47,-96.13 317.01,-96.13 317.01,-96.13 323.01,-96.13 329.01,-102.13 329.01,-108.13 329.01,-108.13 329.01,-120.13 329.01,-120.13 329.01,-126.13 323.01,-132.13 317.01,-132.13"/>
<text xml:space="preserve" text-anchor="middle" x="279.74" y="-117.43" font-family="Arial" font-size="11.00">usd_forecast.csv</text>
<text xml:space="preserve" text-anchor="middle" x="279.74" y="-104.23" font-family="Arial" font-size="11.00">(LSTM прогноз)</text>
</g>
<!-- predict&#45;&gt;lstm_fc -->
<g id="edge20" class="edge">
<title>predict&#45;&gt;lstm_fc</title>
<path fill="none" stroke="black" d="M279.74,-167.83C279.74,-160.54 279.74,-151.86 279.74,-143.67"/>
<polygon fill="black" stroke="black" points="283.24,-143.75 279.74,-133.75 276.24,-143.75 283.24,-143.75"/>
</g>
<!-- lstm_fc&#45;&gt;app -->
<g id="edge24" class="edge">
<title>lstm_fc&#45;&gt;app</title>
<path fill="none" stroke="black" d="M300.1,-95.73C311.3,-86.16 325.54,-73.98 338.64,-62.79"/>
<polygon fill="black" stroke="black" points="340.56,-65.75 345.89,-56.59 336.01,-60.43 340.56,-65.75"/>
</g>
<!-- prophet_fc&#45;&gt;app -->
<g id="edge25" class="edge">
<title>prophet_fc&#45;&gt;app</title>
<path fill="none" stroke="black" d="M174.18,-169.86C242.15,-155.21 334.56,-134.9 337.74,-132.13 355.51,-116.66 364.99,-92.01 370.04,-70.93"/>
<polygon fill="black" stroke="black" points="373.47,-71.65 372.1,-61.14 366.62,-70.21 373.47,-71.65"/>
</g>
<!-- spacer4 -->
<g id="node21" class="node">
<title>spacer4</title>
<path fill="lightgrey" stroke="none" d="M684.34,-839.98C684.34,-839.98 635.14,-839.98 635.14,-839.98 633.94,-839.98 632.74,-838.78 632.74,-837.58 632.74,-837.58 632.74,-835.18 632.74,-835.18 632.74,-833.98 633.94,-832.78 635.14,-832.78 635.14,-832.78 684.34,-832.78 684.34,-832.78 685.54,-832.78 686.74,-833.98 686.74,-835.18 686.74,-835.18 686.74,-837.58 686.74,-837.58 686.74,-838.78 685.54,-839.98 684.34,-839.98"/>
</g>
</g>
</svg>
