<?xml version="1.0" encoding="UTF-8" standalone="no"?>
<!DOCTYPE svg PUBLIC "-//W3C//DTD SVG 1.1//EN"
 "http://www.w3.org/Graphics/SVG/1.1/DTD/svg11.dtd">
<!-- Generated by graphviz version 13.1.1 (20250719.2154)
 -->
<!-- Title: lstm_model Pages: 1 -->
<svg width="1109pt" height="228pt"
 viewBox="0.00 0.00 1109.00 228.00" xmlns="http://www.w3.org/2000/svg" xmlns:xlink="http://www.w3.org/1999/xlink">
<g id="graph0" class="graph" transform="scale(1 1) rotate(0) translate(4 223.6)">
<title>lstm_model</title>
<polygon fill="#fafafa" stroke="none" points="-4,4 -4,-223.6 1104.88,-223.6 1104.88,4 -4,4"/>
<!-- input -->
<g id="node1" class="node">
<title>input</title>
<path fill="#90caf9" stroke="black" d="M195.71,-219.6C195.71,-219.6 12,-219.6 12,-219.6 6,-219.6 0,-213.6 0,-207.6 0,-207.6 0,-195.6 0,-195.6 0,-189.6 6,-183.6 12,-183.6 12,-183.6 195.71,-183.6 195.71,-183.6 201.71,-183.6 207.71,-189.6 207.71,-195.6 207.71,-195.6 207.71,-207.6 207.71,-207.6 207.71,-213.6 201.71,-219.6 195.71,-219.6"/>
<text xml:space="preserve" text-anchor="middle" x="103.85" y="-204.9" font-family="Arial" font-size="11.00">Входные данные</text>
<text xml:space="preserve" text-anchor="middle" x="103.85" y="-191.7" font-family="Arial" font-size="11.00">x shape: (batch, seq_len, input_size=1)</text>
</g>
<!-- lstm -->
<g id="node2" class="node">
<title>lstm</title>
<path fill="#64b5f6" stroke="black" d="M474.05,-172.6C474.05,-172.6 256.71,-172.6 256.71,-172.6 250.71,-172.6 244.71,-166.6 244.71,-160.6 244.71,-160.6 244.71,-110.6 244.71,-110.6 244.71,-104.6 250.71,-98.6 256.71,-98.6 256.71,-98.6 474.05,-98.6 474.05,-98.6 480.05,-98.6 486.05,-104.6 486.05,-110.6 486.05,-110.6 486.05,-160.6 486.05,-160.6 486.05,-166.6 480.05,-172.6 474.05,-172.6"/>
<text xml:space="preserve" text-anchor="middle" x="365.38" y="-158.7" font-family="Arial" font-size="11.00">nn.LSTM</text>
<text xml:space="preserve" text-anchor="middle" x="365.38" y="-145.5" font-family="Arial" font-size="11.00">(hidden_size=64, num_layers=2, dropout=0.2)</text>
<text xml:space="preserve" text-anchor="middle" x="365.38" y="-132.3" font-family="Arial" font-size="11.00">📘 batch_first=True</text>
<text xml:space="preserve" text-anchor="middle" x="365.38" y="-119.1" font-family="Arial" font-size="11.00">→ out: (batch, seq, hidden)</text>
<text xml:space="preserve" text-anchor="middle" x="365.38" y="-105.9" font-family="Arial" font-size="11.00">→ hidden: (h_n, c_n)</text>
</g>
<!-- input&#45;&gt;lstm -->
<g id="edge1" class="edge">
<title>input&#45;&gt;lstm</title>
<path fill="none" stroke="#1976d2" stroke-width="2" d="M177.49,-183.13C194.59,-178.78 213.34,-174.01 232.16,-169.22"/>
<polygon fill="#1976d2" stroke="#1976d2" stroke-width="2" points="232.76,-172.68 241.59,-166.83 231.03,-165.9 232.76,-172.68"/>
</g>
<!-- activation -->
<g id="node3" class="node">
<title>activation</title>
<path fill="#42a5f5" stroke="black" d="M739.75,-153.6C739.75,-153.6 649.93,-153.6 649.93,-153.6 643.93,-153.6 637.93,-147.6 637.93,-141.6 637.93,-141.6 637.93,-129.6 637.93,-129.6 637.93,-123.6 643.93,-117.6 649.93,-117.6 649.93,-117.6 739.75,-117.6 739.75,-117.6 745.75,-117.6 751.75,-123.6 751.75,-129.6 751.75,-129.6 751.75,-141.6 751.75,-141.6 751.75,-147.6 745.75,-153.6 739.75,-153.6"/>
<text xml:space="preserve" text-anchor="middle" x="694.84" y="-138.9" font-family="Arial" font-size="11.00">Activation (optional)</text>
<text xml:space="preserve" text-anchor="middle" x="694.84" y="-125.7" font-family="Arial" font-size="11.00">ReLU / Tanh / None</text>
</g>
<!-- lstm&#45;&gt;activation -->
<g id="edge2" class="edge">
<title>lstm&#45;&gt;activation</title>
<path fill="none" stroke="#1976d2" stroke-width="2" d="M486.45,-135.6C532.96,-135.6 584.55,-135.6 624.63,-135.6"/>
<polygon fill="#1976d2" stroke="#1976d2" stroke-width="2" points="624.46,-139.1 634.46,-135.6 624.46,-132.1 624.46,-139.1"/>
<text xml:space="preserve" text-anchor="middle" x="561.99" y="-138.9" font-family="Arial" font-size="11.00">last_output = out[:, &#45;1, :]</text>
</g>
<!-- linear -->
<g id="node4" class="node">
<title>linear</title>
<path fill="#2196f3" stroke="black" d="M880.19,-159.4C880.19,-159.4 800.75,-159.4 800.75,-159.4 794.75,-159.4 788.75,-153.4 788.75,-147.4 788.75,-147.4 788.75,-123.8 788.75,-123.8 788.75,-117.8 794.75,-111.8 800.75,-111.8 800.75,-111.8 880.19,-111.8 880.19,-111.8 886.19,-111.8 892.19,-117.8 892.19,-123.8 892.19,-123.8 892.19,-147.4 892.19,-147.4 892.19,-153.4 886.19,-159.4 880.19,-159.4"/>
<text xml:space="preserve" text-anchor="middle" x="840.47" y="-145.5" font-family="Arial" font-size="11.00">Linear Layer</text>
<text xml:space="preserve" text-anchor="middle" x="840.47" y="-132.3" font-family="Arial" font-size="11.00">(hidden_size → 1)</text>
<text xml:space="preserve" text-anchor="middle" x="840.47" y="-119.1" font-family="Arial" font-size="11.00">Выход: (batch, 1)</text>
</g>
<!-- activation&#45;&gt;linear -->
<g id="edge3" class="edge">
<title>activation&#45;&gt;linear</title>
<path fill="none" stroke="#1976d2" stroke-width="2" d="M752.19,-135.6C759.85,-135.6 767.75,-135.6 775.52,-135.6"/>
<polygon fill="#1976d2" stroke="#1976d2" stroke-width="2" points="775.4,-139.1 785.4,-135.6 775.4,-132.1 775.4,-139.1"/>
</g>
<!-- output -->
<g id="node5" class="node">
<title>output</title>
<polygon fill="#fff8e1" stroke="black" points="1094.88,-167.6 929.19,-167.6 929.19,-103.6 1100.88,-103.6 1100.88,-161.6 1094.88,-167.6"/>
<polyline fill="none" stroke="black" points="1094.88,-167.6 1094.88,-161.6"/>
<polyline fill="none" stroke="black" points="1100.88,-161.6 1094.88,-161.6"/>
<polygon fill="none" stroke="black" points="938.19,-144.6 938.19,-162.6 1091.88,-162.6 1091.88,-144.6 938.19,-144.6"/>
<text xml:space="preserve" text-anchor="start" x="974.75" y="-151.6" font-family="Arial" font-weight="bold" font-size="10.00">Пример прогноза</text>
<polygon fill="none" stroke="black" points="938.19,-126.6 938.19,-144.6 1046.99,-144.6 1046.99,-126.6 938.19,-126.6"/>
<text xml:space="preserve" text-anchor="start" x="941.19" y="-133.6" font-family="Arial" font-weight="bold" font-size="10.00">Последнее состояние</text>
<polygon fill="none" stroke="black" points="1046.99,-126.6 1046.99,-144.6 1091.88,-144.6 1091.88,-126.6 1046.99,-126.6"/>
<text xml:space="preserve" text-anchor="start" x="1049.99" y="-133.6" font-family="Arial" font-weight="bold" font-size="10.00">Прогноз</text>
<polygon fill="none" stroke="black" points="938.19,-108.6 938.19,-126.6 1046.99,-126.6 1046.99,-108.6 938.19,-108.6"/>
<text xml:space="preserve" text-anchor="start" x="949.5" y="-114.6" font-family="Arial" font-size="10.00">[0.42, 0.51, ... 0.33]</text>
<polygon fill="none" stroke="black" points="1046.99,-108.6 1046.99,-126.6 1091.88,-126.6 1091.88,-108.6 1046.99,-108.6"/>
<text xml:space="preserve" text-anchor="start" x="1051.36" y="-114.6" font-family="Arial" font-size="10.00">12495.7</text>
<polygon fill="none" stroke="black" points="937.19,-107.6 937.19,-163.6 1092.88,-163.6 1092.88,-107.6 937.19,-107.6"/>
</g>
<!-- linear&#45;&gt;output -->
<g id="edge4" class="edge">
<title>linear&#45;&gt;output</title>
<path fill="none" stroke="#1976d2" stroke-width="2" d="M892.31,-135.6C899.88,-135.6 907.89,-135.6 916.04,-135.6"/>
<polygon fill="#1976d2" stroke="#1976d2" stroke-width="2" points="915.9,-139.1 925.9,-135.6 915.9,-132.1 915.9,-139.1"/>
</g>
<!-- init_weights -->
<g id="node6" class="node">
<title>init_weights</title>
<path fill="#e3f2fd" stroke="black" d="M180.55,-166C180.55,-166 27.15,-166 27.15,-166 21.15,-166 15.15,-160 15.15,-154 15.15,-154 15.15,-117.2 15.15,-117.2 15.15,-111.2 21.15,-105.2 27.15,-105.2 27.15,-105.2 180.55,-105.2 180.55,-105.2 186.55,-105.2 192.55,-111.2 192.55,-117.2 192.55,-117.2 192.55,-154 192.55,-154 192.55,-160 186.55,-166 180.55,-166"/>
<text xml:space="preserve" text-anchor="middle" x="103.85" y="-152.1" font-family="Arial" font-size="11.00">Инициализация весов</text>
<text xml:space="preserve" text-anchor="middle" x="103.85" y="-138.9" font-family="Arial" font-size="11.00">• Xavier (input weights)</text>
<text xml:space="preserve" text-anchor="middle" x="103.85" y="-125.7" font-family="Arial" font-size="11.00">• Orthogonal (recurrent weights)</text>
<text xml:space="preserve" text-anchor="middle" x="103.85" y="-112.5" font-family="Arial" font-size="11.00">• zeros (bias)</text>
</g>
<!-- init_weights&#45;&gt;lstm -->
<g id="edge6" class="edge">
<title>init_weights&#45;&gt;lstm</title>
<path fill="none" stroke="#90caf9" stroke-width="2" stroke-dasharray="5,2" d="M192.72,-135.6C205.31,-135.6 218.49,-135.6 231.71,-135.6"/>
<polygon fill="#90caf9" stroke="#90caf9" stroke-width="2" points="231.36,-139.1 241.36,-135.6 231.36,-132.1 231.36,-139.1"/>
</g>
<!-- params -->
<g id="node7" class="node">
<title>params</title>
<path fill="#e1f5fe" stroke="black" d="M148.75,-87.2C148.75,-87.2 58.95,-87.2 58.95,-87.2 52.95,-87.2 46.95,-81.2 46.95,-75.2 46.95,-75.2 46.95,-12 46.95,-12 46.95,-6 52.95,0 58.95,0 58.95,0 148.75,0 148.75,0 154.75,0 160.75,-6 160.75,-12 160.75,-12 160.75,-75.2 160.75,-75.2 160.75,-81.2 154.75,-87.2 148.75,-87.2"/>
<text xml:space="preserve" text-anchor="middle" x="103.85" y="-73.3" font-family="Arial" font-size="11.00">Параметры модели:</text>
<text xml:space="preserve" text-anchor="middle" x="103.85" y="-60.1" font-family="Arial" font-size="11.00">input_size=1</text>
<text xml:space="preserve" text-anchor="middle" x="103.85" y="-46.9" font-family="Arial" font-size="11.00">hidden_size=64</text>
<text xml:space="preserve" text-anchor="middle" x="103.85" y="-33.7" font-family="Arial" font-size="11.00">num_layers=2</text>
<text xml:space="preserve" text-anchor="middle" x="103.85" y="-20.5" font-family="Arial" font-size="11.00">dropout=0.2</text>
<text xml:space="preserve" text-anchor="middle" x="103.85" y="-7.3" font-family="Arial" font-size="11.00">activation=None</text>
</g>
<!-- params&#45;&gt;lstm -->
<g id="edge5" class="edge">
<title>params&#45;&gt;lstm</title>
<path fill="none" stroke="#64b5f6" stroke-width="2" stroke-dasharray="5,2" d="M161.17,-63.56C186.26,-72.46 216.81,-83.29 246.53,-93.82"/>
<polygon fill="#64b5f6" stroke="#64b5f6" stroke-width="2" points="245.3,-97.1 255.89,-97.14 247.64,-90.5 245.3,-97.1"/>
</g>
</g>
</svg>
