<?xml version="1.0" encoding="UTF-8" standalone="no"?>
<!DOCTYPE svg PUBLIC "-//W3C//DTD SVG 1.1//EN"
 "http://www.w3.org/Graphics/SVG/1.1/DTD/svg11.dtd">
<!-- Generated by graphviz version 13.1.1 (20250719.2154)
 -->
<!-- Title: dataset_flow Pages: 1 -->
<svg width="1345pt" height="120pt"
 viewBox="0.00 0.00 1345.00 120.00" xmlns="http://www.w3.org/2000/svg" xmlns:xlink="http://www.w3.org/1999/xlink">
<g id="graph0" class="graph" transform="scale(1 1) rotate(0) translate(4 116)">
<title>dataset_flow</title>
<polygon fill="#fafafa" stroke="none" points="-4,4 -4,-116 1341.09,-116 1341.09,4 -4,4"/>
<!-- load -->
<g id="node1" class="node">
<title>load</title>
<path fill="#a5d6a7" stroke="black" d="M107.91,-79.8C107.91,-79.8 12,-79.8 12,-79.8 6,-79.8 0,-73.8 0,-67.8 0,-67.8 0,-44.2 0,-44.2 0,-38.2 6,-32.2 12,-32.2 12,-32.2 107.91,-32.2 107.91,-32.2 113.91,-32.2 119.91,-38.2 119.91,-44.2 119.91,-44.2 119.91,-67.8 119.91,-67.8 119.91,-73.8 113.91,-79.8 107.91,-79.8"/>
<text xml:space="preserve" text-anchor="middle" x="59.95" y="-65.9" font-family="Arial" font-size="11.00">load_preprocessed()</text>
<text xml:space="preserve" text-anchor="middle" x="59.95" y="-52.7" font-family="Arial" font-size="11.00">📄 Загрузка данных</text>
<text xml:space="preserve" text-anchor="middle" x="59.95" y="-39.5" font-family="Arial" font-size="11.00">(date, rate, diff, ...)</text>
</g>
<!-- scale -->
<g id="node2" class="node">
<title>scale</title>
<path fill="#81c784" stroke="black" d="M381.49,-79.8C381.49,-79.8 251.95,-79.8 251.95,-79.8 245.95,-79.8 239.95,-73.8 239.95,-67.8 239.95,-67.8 239.95,-44.2 239.95,-44.2 239.95,-38.2 245.95,-32.2 251.95,-32.2 251.95,-32.2 381.49,-32.2 381.49,-32.2 387.49,-32.2 393.49,-38.2 393.49,-44.2 393.49,-44.2 393.49,-67.8 393.49,-67.8 393.49,-73.8 387.49,-79.8 381.49,-79.8"/>
<text xml:space="preserve" text-anchor="middle" x="316.72" y="-65.9" font-family="Arial" font-size="11.00">MinMaxScaler()</text>
<text xml:space="preserve" text-anchor="middle" x="316.72" y="-52.7" font-family="Arial" font-size="11.00">📉 Масштабирование [0–1]</text>
<text xml:space="preserve" text-anchor="middle" x="316.72" y="-39.5" font-family="Arial" font-size="11.00">shape: (N, 1)</text>
</g>
<!-- load&#45;&gt;scale -->
<g id="edge1" class="edge">
<title>load&#45;&gt;scale</title>
<path fill="none" stroke="#388e3c" stroke-width="2" d="M120.36,-56C152.05,-56 191.68,-56 226.95,-56"/>
<polygon fill="#388e3c" stroke="#388e3c" stroke-width="2" points="226.69,-59.5 236.69,-56 226.69,-52.5 226.69,-59.5"/>
<text xml:space="preserve" text-anchor="middle" x="179.93" y="-60.2" font-family="Arial" font-size="14.00">rate → scaled</text>
</g>
<!-- windows -->
<g id="node3" class="node">
<title>windows</title>
<path fill="#66bb6a" stroke="black" d="M707.44,-86.4C707.44,-86.4 598.67,-86.4 598.67,-86.4 592.67,-86.4 586.67,-80.4 586.67,-74.4 586.67,-74.4 586.67,-37.6 586.67,-37.6 586.67,-31.6 592.67,-25.6 598.67,-25.6 598.67,-25.6 707.44,-25.6 707.44,-25.6 713.44,-25.6 719.44,-31.6 719.44,-37.6 719.44,-37.6 719.44,-74.4 719.44,-74.4 719.44,-80.4 713.44,-86.4 707.44,-86.4"/>
<text xml:space="preserve" text-anchor="middle" x="653.05" y="-72.5" font-family="Arial" font-size="11.00">create_sequences()</text>
<text xml:space="preserve" text-anchor="middle" x="653.05" y="-59.3" font-family="Arial" font-size="11.00">🪟 Генерация окон</text>
<text xml:space="preserve" text-anchor="middle" x="653.05" y="-46.1" font-family="Arial" font-size="11.00">X: (samples, window, 1)</text>
<text xml:space="preserve" text-anchor="middle" x="653.05" y="-32.9" font-family="Arial" font-size="11.00">y: (samples, 1)</text>
</g>
<!-- scale&#45;&gt;windows -->
<g id="edge2" class="edge">
<title>scale&#45;&gt;windows</title>
<path fill="none" stroke="#388e3c" stroke-width="2" d="M393.58,-56C447.36,-56 519.32,-56 573.66,-56"/>
<polygon fill="#388e3c" stroke="#388e3c" stroke-width="2" points="573.34,-59.5 583.34,-56 573.34,-52.5 573.34,-59.5"/>
<text xml:space="preserve" text-anchor="middle" x="490.08" y="-60.2" font-family="Arial" font-size="14.00">scaled → sliding windows</text>
</g>
<!-- split -->
<g id="node4" class="node">
<title>split</title>
<path fill="#4caf50" stroke="black" d="M877.07,-86.4C877.07,-86.4 791.55,-86.4 791.55,-86.4 785.55,-86.4 779.55,-80.4 779.55,-74.4 779.55,-74.4 779.55,-37.6 779.55,-37.6 779.55,-31.6 785.55,-25.6 791.55,-25.6 791.55,-25.6 877.07,-25.6 877.07,-25.6 883.07,-25.6 889.07,-31.6 889.07,-37.6 889.07,-37.6 889.07,-74.4 889.07,-74.4 889.07,-80.4 883.07,-86.4 877.07,-86.4"/>
<text xml:space="preserve" text-anchor="middle" x="834.31" y="-72.5" font-family="Arial" font-size="11.00">prepare_dataset()</text>
<text xml:space="preserve" text-anchor="middle" x="834.31" y="-59.3" font-family="Arial" font-size="11.00">✂️ Train/Test split</text>
<text xml:space="preserve" text-anchor="middle" x="834.31" y="-46.1" font-family="Arial" font-size="11.00">train: 90%</text>
<text xml:space="preserve" text-anchor="middle" x="834.31" y="-32.9" font-family="Arial" font-size="11.00">test: 10%</text>
</g>
<!-- windows&#45;&gt;split -->
<g id="edge3" class="edge">
<title>windows&#45;&gt;split</title>
<path fill="none" stroke="#388e3c" stroke-width="2" d="M719.79,-56C734.86,-56 750.9,-56 766.03,-56"/>
<polygon fill="#388e3c" stroke="#388e3c" stroke-width="2" points="766.03,-59.5 776.03,-56 766.03,-52.5 766.03,-59.5"/>
<text xml:space="preserve" text-anchor="middle" x="749.49" y="-60.2" font-family="Arial" font-size="14.00">X, y</text>
</g>
<!-- output -->
<g id="node5" class="node">
<title>output</title>
<polygon fill="#fff8e1" stroke="black" points="1331.09,-112 1021.57,-112 1021.57,0 1337.09,0 1337.09,-106 1331.09,-112"/>
<polyline fill="none" stroke="black" points="1331.09,-112 1331.09,-106"/>
<polyline fill="none" stroke="black" points="1337.09,-106 1331.09,-106"/>
<polygon fill="none" stroke="black" points="1030.57,-89 1030.57,-107 1328.09,-107 1328.09,-89 1030.57,-89"/>
<text xml:space="preserve" text-anchor="start" x="1094.03" y="-96" font-family="Arial" font-weight="bold" font-size="10.00">PyTorch Dataset (train_ds / test_ds)</text>
<polygon fill="none" stroke="black" points="1030.57,-71 1030.57,-89 1203.29,-89 1203.29,-71 1030.57,-71"/>
<text xml:space="preserve" text-anchor="start" x="1090.55" y="-78" font-family="Arial" font-weight="bold" font-size="10.00">X (window)</text>
<polygon fill="none" stroke="black" points="1203.29,-71 1203.29,-89 1252.08,-89 1252.08,-71 1203.29,-71"/>
<text xml:space="preserve" text-anchor="start" x="1206.29" y="-78" font-family="Arial" font-weight="bold" font-size="10.00">y (target)</text>
<polygon fill="none" stroke="black" points="1252.08,-71 1252.08,-89 1328.09,-89 1328.09,-71 1252.08,-71"/>
<text xml:space="preserve" text-anchor="start" x="1275.62" y="-78" font-family="Arial" font-weight="bold" font-size="10.00">scaler</text>
<polygon fill="none" stroke="black" points="1030.57,-5 1030.57,-71 1203.29,-71 1203.29,-5 1030.57,-5"/>
<text xml:space="preserve" text-anchor="start" x="1033.57" y="-59" font-family="Arial" font-size="10.00"> &#160;&#160;&#160;&#160;&#160;&#160;&#160;&#160;&#160;&#160;&#160;&#160;&#160;&#160;&#160;&#160;&#160;&#160;&#160;&#160;&#160;&#160;&#160;[ &#160;&#160;&#160;&#160;&#160;&#160;&#160;&#160;&#160;&#160;&#160;&#160;&#160;&#160;&#160;&#160;&#160;&#160;&#160;&#160;&#160;&#160;&#160;12450,</text>
<text xml:space="preserve" text-anchor="start" x="1101.64" y="-47" font-family="Arial" font-size="10.00">12452,</text>
<text xml:space="preserve" text-anchor="start" x="1101.64" y="-35" font-family="Arial" font-size="10.00">12455,</text>
<text xml:space="preserve" text-anchor="start" x="1111.38" y="-23" font-family="Arial" font-size="10.00">...,</text>
<text xml:space="preserve" text-anchor="start" x="1040.52" y="-11" font-family="Arial" font-size="10.00">12501 &#160;&#160;&#160;&#160;&#160;&#160;&#160;&#160;&#160;&#160;&#160;&#160;&#160;&#160;&#160;&#160;&#160;&#160;&#160;&#160;&#160;&#160;&#160;] &#160;&#160;&#160;&#160;&#160;&#160;&#160;&#160;&#160;&#160;&#160;&#160;&#160;&#160;&#160;&#160;&#160;&#160;&#160;</text>
<polygon fill="none" stroke="black" points="1203.29,-5 1203.29,-71 1252.08,-71 1252.08,-5 1203.29,-5"/>
<text xml:space="preserve" text-anchor="start" x="1213.78" y="-35" font-family="Arial" font-size="10.00">12510</text>
<polygon fill="none" stroke="black" points="1252.08,-5 1252.08,-71 1328.09,-71 1328.09,-5 1252.08,-5"/>
<text xml:space="preserve" text-anchor="start" x="1255.08" y="-35" font-family="Arial" font-size="10.00">MinMaxScaler()</text>
<polygon fill="none" stroke="black" points="1029.57,-4 1029.57,-108 1329.09,-108 1329.09,-4 1029.57,-4"/>
</g>
<!-- split&#45;&gt;output -->
<g id="edge4" class="edge">
<title>split&#45;&gt;output</title>
<path fill="none" stroke="#388e3c" stroke-width="2" d="M889.29,-56C921.83,-56 965.24,-56 1008.52,-56"/>
<polygon fill="#388e3c" stroke="#388e3c" stroke-width="2" points="1008.29,-59.5 1018.29,-56 1008.29,-52.5 1008.29,-59.5"/>
<text xml:space="preserve" text-anchor="middle" x="955.32" y="-60.2" font-family="Arial" font-size="14.00">Dataset objects</text>
</g>
</g>
</svg>
