<?xml version="1.0" encoding="UTF-8" standalone="no"?>
<!DOCTYPE svg PUBLIC "-//W3C//DTD SVG 1.1//EN"
 "http://www.w3.org/Graphics/SVG/1.1/DTD/svg11.dtd">
<!-- Generated by graphviz version 13.1.1 (20250719.2154)
 -->
<!-- Title: preprocess_flow Pages: 1 -->
<svg width="1760pt" height="117pt"
 viewBox="0.00 0.00 1760.00 117.00" xmlns="http://www.w3.org/2000/svg" xmlns:xlink="http://www.w3.org/1999/xlink">
<g id="graph0" class="graph" transform="scale(1 1) rotate(0) translate(4 112.8)">
<title>preprocess_flow</title>
<polygon fill="#fafafa" stroke="none" points="-4,4 -4,-112.8 1756.27,-112.8 1756.27,4 -4,4"/>
<!-- raw -->
<g id="node1" class="node">
<title>raw</title>
<path fill="#64b5f6" stroke="black" d="M136.25,-75.2C136.25,-75.2 12,-75.2 12,-75.2 6,-75.2 0,-69.2 0,-63.2 0,-63.2 0,-45.6 0,-45.6 0,-39.6 6,-33.6 12,-33.6 12,-33.6 136.25,-33.6 136.25,-33.6 142.25,-33.6 148.25,-39.6 148.25,-45.6 148.25,-45.6 148.25,-63.2 148.25,-63.2 148.25,-69.2 142.25,-75.2 136.25,-75.2"/>
<text xml:space="preserve" text-anchor="middle" x="74.12" y="-58.6" font-family="Arial" font-size="14.00">load_raw_data()</text>
<text xml:space="preserve" text-anchor="middle" x="74.12" y="-41.8" font-family="Arial" font-size="14.00">📄 Загрузка данных</text>
</g>
<!-- calendar -->
<g id="node2" class="node">
<title>calendar</title>
<path fill="#4fc3f7" stroke="black" d="M554.99,-75.2C554.99,-75.2 349.06,-75.2 349.06,-75.2 343.06,-75.2 337.06,-69.2 337.06,-63.2 337.06,-63.2 337.06,-45.6 337.06,-45.6 337.06,-39.6 343.06,-33.6 349.06,-33.6 349.06,-33.6 554.99,-33.6 554.99,-33.6 560.99,-33.6 566.99,-39.6 566.99,-45.6 566.99,-45.6 566.99,-63.2 566.99,-63.2 566.99,-69.2 560.99,-75.2 554.99,-75.2"/>
<text xml:space="preserve" text-anchor="middle" x="452.02" y="-58.6" font-family="Arial" font-size="14.00">ensure_full_calendar()</text>
<text xml:space="preserve" text-anchor="middle" x="452.02" y="-41.8" font-family="Arial" font-size="14.00">📅 Создание полного календаря</text>
</g>
<!-- raw&#45;&gt;calendar -->
<g id="edge1" class="edge">
<title>raw&#45;&gt;calendar</title>
<path fill="none" stroke="#1976d2" stroke-width="2" d="M148.49,-54.4C198.36,-54.4 265.62,-54.4 324.06,-54.4"/>
<polygon fill="#1976d2" stroke="#1976d2" stroke-width="2" points="323.74,-57.9 333.74,-54.4 323.74,-50.9 323.74,-57.9"/>
<text xml:space="preserve" text-anchor="middle" x="242.65" y="-57.7" font-family="Arial" font-size="11.00">Проверка непрерывности дат</text>
</g>
<!-- missing -->
<g id="node3" class="node">
<title>missing</title>
<path fill="#29b6f6" stroke="black" d="M913.21,-83.6C913.21,-83.6 750.07,-83.6 750.07,-83.6 744.07,-83.6 738.07,-77.6 738.07,-71.6 738.07,-71.6 738.07,-37.2 738.07,-37.2 738.07,-31.2 744.07,-25.2 750.07,-25.2 750.07,-25.2 913.21,-25.2 913.21,-25.2 919.21,-25.2 925.21,-31.2 925.21,-37.2 925.21,-37.2 925.21,-71.6 925.21,-71.6 925.21,-77.6 919.21,-83.6 913.21,-83.6"/>
<text xml:space="preserve" text-anchor="middle" x="831.64" y="-67" font-family="Arial" font-size="14.00">fill_missing_rates()</text>
<text xml:space="preserve" text-anchor="middle" x="831.64" y="-50.2" font-family="Arial" font-size="14.00">🩹 Заполнение пропусков</text>
<text xml:space="preserve" text-anchor="middle" x="831.64" y="-33.4" font-family="Arial" font-size="14.00">ffill / bfill</text>
</g>
<!-- calendar&#45;&gt;missing -->
<g id="edge2" class="edge">
<title>calendar&#45;&gt;missing</title>
<path fill="none" stroke="#1976d2" stroke-width="2" d="M567.34,-54.4C617.36,-54.4 675.68,-54.4 724.71,-54.4"/>
<polygon fill="#1976d2" stroke="#1976d2" stroke-width="2" points="724.59,-57.9 734.59,-54.4 724.59,-50.9 724.59,-57.9"/>
<text xml:space="preserve" text-anchor="middle" x="652.53" y="-57.7" font-family="Arial" font-size="11.00">Находим и заполняем NaN</text>
</g>
<!-- features -->
<g id="node4" class="node">
<title>features</title>
<path fill="#03a9f4" stroke="black" d="M1274.72,-108.8C1274.72,-108.8 1107.68,-108.8 1107.68,-108.8 1101.68,-108.8 1095.68,-102.8 1095.68,-96.8 1095.68,-96.8 1095.68,-12 1095.68,-12 1095.68,-6 1101.68,0 1107.68,0 1107.68,0 1274.72,0 1274.72,0 1280.72,0 1286.72,-6 1286.72,-12 1286.72,-12 1286.72,-96.8 1286.72,-96.8 1286.72,-102.8 1280.72,-108.8 1274.72,-108.8"/>
<text xml:space="preserve" text-anchor="middle" x="1191.2" y="-92.2" font-family="Arial" font-size="14.00">add_features()</text>
<text xml:space="preserve" text-anchor="middle" x="1191.2" y="-75.4" font-family="Arial" font-size="14.00">⚙️ Генерация признаков:</text>
<text xml:space="preserve" text-anchor="middle" x="1191.2" y="-58.6" font-family="Arial" font-size="14.00">• diff</text>
<text xml:space="preserve" text-anchor="middle" x="1191.2" y="-41.8" font-family="Arial" font-size="14.00">• pct_change</text>
<text xml:space="preserve" text-anchor="middle" x="1191.2" y="-25" font-family="Arial" font-size="14.00">• direction</text>
<text xml:space="preserve" text-anchor="middle" x="1191.2" y="-8.2" font-family="Arial" font-size="14.00">• MA7 / MA30</text>
</g>
<!-- missing&#45;&gt;features -->
<g id="edge3" class="edge">
<title>missing&#45;&gt;features</title>
<path fill="none" stroke="#1976d2" stroke-width="2" d="M925.65,-54.4C973.72,-54.4 1032.62,-54.4 1082.63,-54.4"/>
<polygon fill="#1976d2" stroke="#1976d2" stroke-width="2" points="1082.45,-57.9 1092.45,-54.4 1082.45,-50.9 1082.45,-57.9"/>
<text xml:space="preserve" text-anchor="middle" x="1010.45" y="-57.7" font-family="Arial" font-size="11.00">Добавляем новые столбцы</text>
</g>
<!-- final -->
<g id="node5" class="node">
<title>final</title>
<polygon fill="#fff8e1" stroke="black" points="1746.27,-104.4 1461.47,-104.4 1461.47,-4.4 1752.27,-4.4 1752.27,-98.4 1746.27,-104.4"/>
<polyline fill="none" stroke="black" points="1746.27,-104.4 1746.27,-98.4"/>
<polyline fill="none" stroke="black" points="1752.27,-98.4 1746.27,-98.4"/>
<polygon fill="none" stroke="black" points="1470.47,-81.4 1470.47,-99.4 1743.27,-99.4 1743.27,-81.4 1470.47,-81.4"/>
<text xml:space="preserve" text-anchor="start" x="1514.6" y="-88.4" font-family="Arial" font-weight="bold" font-size="10.00">data/processed/usd_preprocessed.csv</text>
<polygon fill="none" stroke="black" points="1470.47,-63.4 1470.47,-81.4 1527.62,-81.4 1527.62,-63.4 1470.47,-63.4"/>
<text xml:space="preserve" text-anchor="start" x="1488.77" y="-70.4" font-family="Arial" font-weight="bold" font-size="10.00">date</text>
<polygon fill="none" stroke="black" points="1527.62,-63.4 1527.62,-81.4 1575.33,-81.4 1575.33,-63.4 1527.62,-63.4"/>
<text xml:space="preserve" text-anchor="start" x="1542.3" y="-70.4" font-family="Arial" font-weight="bold" font-size="10.00">rate</text>
<polygon fill="none" stroke="black" points="1575.33,-63.4 1575.33,-81.4 1606.36,-81.4 1606.36,-63.4 1575.33,-63.4"/>
<text xml:space="preserve" text-anchor="start" x="1583.07" y="-70.4" font-family="Arial" font-weight="bold" font-size="10.00">diff</text>
<polygon fill="none" stroke="black" points="1606.36,-63.4 1606.36,-81.4 1667.93,-81.4 1667.93,-63.4 1606.36,-63.4"/>
<text xml:space="preserve" text-anchor="start" x="1609.36" y="-70.4" font-family="Arial" font-weight="bold" font-size="10.00">pct_change</text>
<polygon fill="none" stroke="black" points="1667.93,-63.4 1667.93,-81.4 1716.15,-81.4 1716.15,-63.4 1667.93,-63.4"/>
<text xml:space="preserve" text-anchor="start" x="1670.93" y="-70.4" font-family="Arial" font-weight="bold" font-size="10.00">direction</text>
<polygon fill="none" stroke="black" points="1716.15,-63.4 1716.15,-81.4 1743.27,-81.4 1743.27,-63.4 1716.15,-63.4"/>
<text xml:space="preserve" text-anchor="start" x="1719.15" y="-70.4" font-family="Arial" font-weight="bold" font-size="10.00">MA7</text>
<polygon fill="none" stroke="black" points="1470.47,-45.4 1470.47,-63.4 1527.62,-63.4 1527.62,-45.4 1470.47,-45.4"/>
<text xml:space="preserve" text-anchor="start" x="1473.47" y="-51.4" font-family="Arial" font-size="10.00">2025&#45;11&#45;22</text>
<polygon fill="none" stroke="black" points="1527.62,-45.4 1527.62,-63.4 1575.33,-63.4 1575.33,-45.4 1527.62,-45.4"/>
<text xml:space="preserve" text-anchor="start" x="1530.62" y="-51.4" font-family="Arial" font-size="10.00">12512.10</text>
<polygon fill="none" stroke="black" points="1575.33,-45.4 1575.33,-63.4 1606.36,-63.4 1606.36,-45.4 1575.33,-45.4"/>
<text xml:space="preserve" text-anchor="start" x="1589.18" y="-51.4" font-family="Arial" font-size="10.00">&#45;</text>
<polygon fill="none" stroke="black" points="1606.36,-45.4 1606.36,-63.4 1667.93,-63.4 1667.93,-45.4 1606.36,-45.4"/>
<text xml:space="preserve" text-anchor="start" x="1635.48" y="-51.4" font-family="Arial" font-size="10.00">&#45;</text>
<polygon fill="none" stroke="black" points="1667.93,-45.4 1667.93,-63.4 1716.15,-63.4 1716.15,-45.4 1667.93,-45.4"/>
<text xml:space="preserve" text-anchor="start" x="1685.37" y="-51.4" font-family="Arial" font-size="10.00">flat</text>
<polygon fill="none" stroke="black" points="1716.15,-45.4 1716.15,-63.4 1743.27,-63.4 1743.27,-45.4 1716.15,-45.4"/>
<text xml:space="preserve" text-anchor="start" x="1728.05" y="-51.4" font-family="Arial" font-size="10.00">&#45;</text>
<polygon fill="none" stroke="black" points="1470.47,-27.4 1470.47,-45.4 1527.62,-45.4 1527.62,-27.4 1470.47,-27.4"/>
<text xml:space="preserve" text-anchor="start" x="1473.47" y="-33.4" font-family="Arial" font-size="10.00">2025&#45;11&#45;23</text>
<polygon fill="none" stroke="black" points="1527.62,-27.4 1527.62,-45.4 1575.33,-45.4 1575.33,-27.4 1527.62,-27.4"/>
<text xml:space="preserve" text-anchor="start" x="1530.62" y="-33.4" font-family="Arial" font-size="10.00">12512.10</text>
<polygon fill="none" stroke="black" points="1575.33,-27.4 1575.33,-45.4 1606.36,-45.4 1606.36,-27.4 1575.33,-27.4"/>
<text xml:space="preserve" text-anchor="start" x="1581.11" y="-33.4" font-family="Arial" font-size="10.00">0.00</text>
<polygon fill="none" stroke="black" points="1606.36,-27.4 1606.36,-45.4 1667.93,-45.4 1667.93,-27.4 1606.36,-27.4"/>
<text xml:space="preserve" text-anchor="start" x="1625.75" y="-33.4" font-family="Arial" font-size="10.00">0.0%</text>
<polygon fill="none" stroke="black" points="1667.93,-27.4 1667.93,-45.4 1716.15,-45.4 1716.15,-27.4 1667.93,-27.4"/>
<text xml:space="preserve" text-anchor="start" x="1685.37" y="-33.4" font-family="Arial" font-size="10.00">flat</text>
<polygon fill="none" stroke="black" points="1716.15,-27.4 1716.15,-45.4 1743.27,-45.4 1743.27,-27.4 1716.15,-27.4"/>
<text xml:space="preserve" text-anchor="start" x="1728.05" y="-33.4" font-family="Arial" font-size="10.00">&#45;</text>
<polygon fill="none" stroke="black" points="1470.47,-9.4 1470.47,-27.4 1527.62,-27.4 1527.62,-9.4 1470.47,-9.4"/>
<text xml:space="preserve" text-anchor="start" x="1473.47" y="-15.4" font-family="Arial" font-size="10.00">2025&#45;11&#45;24</text>
<polygon fill="none" stroke="black" points="1527.62,-9.4 1527.62,-27.4 1575.33,-27.4 1575.33,-9.4 1527.62,-9.4"/>
<text xml:space="preserve" text-anchor="start" x="1530.62" y="-15.4" font-family="Arial" font-size="10.00">12550.00</text>
<polygon fill="none" stroke="black" points="1575.33,-9.4 1575.33,-27.4 1606.36,-27.4 1606.36,-9.4 1575.33,-9.4"/>
<text xml:space="preserve" text-anchor="start" x="1578.33" y="-15.4" font-family="Arial" font-size="10.00">37.90</text>
<polygon fill="none" stroke="black" points="1606.36,-9.4 1606.36,-27.4 1667.93,-27.4 1667.93,-9.4 1606.36,-9.4"/>
<text xml:space="preserve" text-anchor="start" x="1620.04" y="-15.4" font-family="Arial" font-size="10.00">+0.30%</text>
<polygon fill="none" stroke="black" points="1667.93,-9.4 1667.93,-27.4 1716.15,-27.4 1716.15,-9.4 1667.93,-9.4"/>
<text xml:space="preserve" text-anchor="start" x="1686.48" y="-15.4" font-family="Arial" font-size="10.00">up</text>
<polygon fill="none" stroke="black" points="1716.15,-9.4 1716.15,-27.4 1743.27,-27.4 1743.27,-9.4 1716.15,-9.4"/>
<text xml:space="preserve" text-anchor="start" x="1728.05" y="-15.4" font-family="Arial" font-size="10.00">&#45;</text>
<polygon fill="none" stroke="black" points="1469.47,-8.4 1469.47,-100.4 1744.27,-100.4 1744.27,-8.4 1469.47,-8.4"/>
</g>
<!-- features&#45;&gt;final -->
<g id="edge4" class="edge">
<title>features&#45;&gt;final</title>
<path fill="none" stroke="#1976d2" stroke-width="2" d="M1287.11,-54.4C1334.8,-54.4 1393.87,-54.4 1448.14,-54.4"/>
<polygon fill="#1976d2" stroke="#1976d2" stroke-width="2" points="1448.07,-57.9 1458.07,-54.4 1448.07,-50.9 1448.07,-57.9"/>
<text xml:space="preserve" text-anchor="middle" x="1374.09" y="-57.7" font-family="Arial" font-size="11.00">Сохраняем результат CSV</text>
</g>
</g>
</svg>
