<?xml version="1.0" encoding="UTF-8" standalone="no"?>
<!DOCTYPE svg PUBLIC "-//W3C//DTD SVG 1.1//EN"
 "http://www.w3.org/Graphics/SVG/1.1/DTD/svg11.dtd">
<!-- Generated by graphviz version 13.1.1 (20250719.2154)
 -->
<!-- Title: train_model_flow Pages: 1 -->
<svg width="1200pt" height="158pt"
 viewBox="0.00 0.00 1200.00 158.00" xmlns="http://www.w3.org/2000/svg" xmlns:xlink="http://www.w3.org/1999/xlink">
<g id="graph0" class="graph" transform="scale(1 1) rotate(0) translate(4 153.8)">
<title>train_model_flow</title>
<polygon fill="#fafafa" stroke="none" points="-4,4 -4,-153.8 1196.14,-153.8 1196.14,4 -4,4"/>
<!-- load_ds -->
<g id="node1" class="node">
<title>load_ds</title>
<path fill="#a5d6a7" stroke="black" d="M110.06,-60.8C110.06,-60.8 12,-60.8 12,-60.8 6,-60.8 0,-54.8 0,-48.8 0,-48.8 0,-25.2 0,-25.2 0,-19.2 6,-13.2 12,-13.2 12,-13.2 110.06,-13.2 110.06,-13.2 116.06,-13.2 122.06,-19.2 122.06,-25.2 122.06,-25.2 122.06,-48.8 122.06,-48.8 122.06,-54.8 116.06,-60.8 110.06,-60.8"/>
<text xml:space="preserve" text-anchor="middle" x="61.03" y="-46.9" font-family="Arial" font-size="11.00">prepare_dataset()</text>
<text xml:space="preserve" text-anchor="middle" x="61.03" y="-33.7" font-family="Arial" font-size="11.00">📄 загрузка + scaler</text>
<text xml:space="preserve" text-anchor="middle" x="61.03" y="-20.5" font-family="Arial" font-size="11.00">→ train_ds / test_ds</text>
</g>
<!-- dataloader -->
<g id="node2" class="node">
<title>dataloader</title>
<path fill="#81c784" stroke="black" d="M261.49,-55C261.49,-55 171.06,-55 171.06,-55 165.06,-55 159.06,-49 159.06,-43 159.06,-43 159.06,-31 159.06,-31 159.06,-25 165.06,-19 171.06,-19 171.06,-19 261.49,-19 261.49,-19 267.49,-19 273.49,-25 273.49,-31 273.49,-31 273.49,-43 273.49,-43 273.49,-49 267.49,-55 261.49,-55"/>
<text xml:space="preserve" text-anchor="middle" x="216.28" y="-40.3" font-family="Arial" font-size="11.00">DataLoader</text>
<text xml:space="preserve" text-anchor="middle" x="216.28" y="-27.1" font-family="Arial" font-size="11.00">(batch_size, shuffle)</text>
</g>
<!-- load_ds&#45;&gt;dataloader -->
<g id="edge1" class="edge">
<title>load_ds&#45;&gt;dataloader</title>
<path fill="none" stroke="#2e7d32" stroke-width="2" d="M122.16,-37C129.99,-37 138.06,-37 146.02,-37"/>
<polygon fill="#2e7d32" stroke="#2e7d32" stroke-width="2" points="145.8,-40.5 155.8,-37 145.8,-33.5 145.8,-40.5"/>
</g>
<!-- model -->
<g id="node3" class="node">
<title>model</title>
<path fill="#66bb6a" stroke="black" d="M425.18,-60.8C425.18,-60.8 322.49,-60.8 322.49,-60.8 316.49,-60.8 310.49,-54.8 310.49,-48.8 310.49,-48.8 310.49,-25.2 310.49,-25.2 310.49,-19.2 316.49,-13.2 322.49,-13.2 322.49,-13.2 425.18,-13.2 425.18,-13.2 431.18,-13.2 437.18,-19.2 437.18,-25.2 437.18,-25.2 437.18,-48.8 437.18,-48.8 437.18,-54.8 431.18,-60.8 425.18,-60.8"/>
<text xml:space="preserve" text-anchor="middle" x="373.83" y="-46.9" font-family="Arial" font-size="11.00">LSTMModel()</text>
<text xml:space="preserve" text-anchor="middle" x="373.83" y="-33.7" font-family="Arial" font-size="11.00">(hidden_size=64,</text>
<text xml:space="preserve" text-anchor="middle" x="373.83" y="-20.5" font-family="Arial" font-size="11.00">layers=2, dropout=0.2)</text>
</g>
<!-- dataloader&#45;&gt;model -->
<g id="edge2" class="edge">
<title>dataloader&#45;&gt;model</title>
<path fill="none" stroke="#2e7d32" stroke-width="2" d="M273.88,-37C281.54,-37 289.49,-37 297.42,-37"/>
<polygon fill="#2e7d32" stroke="#2e7d32" stroke-width="2" points="297.2,-40.5 307.2,-37 297.2,-33.5 297.2,-40.5"/>
</g>
<!-- train_loop -->
<g id="node4" class="node">
<title>train_loop</title>
<path fill="#4caf50" stroke="black" d="M694.52,-74C694.52,-74 546.66,-74 546.66,-74 540.66,-74 534.66,-68 534.66,-62 534.66,-62 534.66,-12 534.66,-12 534.66,-6 540.66,0 546.66,0 546.66,0 694.52,0 694.52,0 700.52,0 706.52,-6 706.52,-12 706.52,-12 706.52,-62 706.52,-62 706.52,-68 700.52,-74 694.52,-74"/>
<text xml:space="preserve" text-anchor="middle" x="620.59" y="-60.1" font-family="Arial" font-size="11.00">TRAIN LOOP (epochs)</text>
<text xml:space="preserve" text-anchor="middle" x="620.59" y="-46.9" font-family="Arial" font-size="11.00">• forward</text>
<text xml:space="preserve" text-anchor="middle" x="620.59" y="-33.7" font-family="Arial" font-size="11.00">• loss.backward()</text>
<text xml:space="preserve" text-anchor="middle" x="620.59" y="-20.5" font-family="Arial" font-size="11.00">• optimizer.step()</text>
<text xml:space="preserve" text-anchor="middle" x="620.59" y="-7.3" font-family="Arial" font-size="11.00">📉 сохранение лучшей модели</text>
</g>
<!-- model&#45;&gt;train_loop -->
<g id="edge3" class="edge">
<title>model&#45;&gt;train_loop</title>
<path fill="none" stroke="#2e7d32" stroke-width="2" d="M437.55,-37C463.1,-37 493.24,-37 521.56,-37"/>
<polygon fill="#2e7d32" stroke="#2e7d32" stroke-width="2" points="521.4,-40.5 531.4,-37 521.4,-33.5 521.4,-40.5"/>
<text xml:space="preserve" text-anchor="middle" x="485.92" y="-41.2" font-family="Arial" font-size="14.00">train_step</text>
</g>
<!-- eval_step_node -->
<g id="node5" class="node">
<title>eval_step_node</title>
<path fill="#81c784" stroke="black" d="M845.04,-108.8C845.04,-108.8 770.5,-108.8 770.5,-108.8 764.5,-108.8 758.5,-102.8 758.5,-96.8 758.5,-96.8 758.5,-73.2 758.5,-73.2 758.5,-67.2 764.5,-61.2 770.5,-61.2 770.5,-61.2 845.04,-61.2 845.04,-61.2 851.04,-61.2 857.04,-67.2 857.04,-73.2 857.04,-73.2 857.04,-96.8 857.04,-96.8 857.04,-102.8 851.04,-108.8 845.04,-108.8"/>
<text xml:space="preserve" text-anchor="middle" x="807.77" y="-94.9" font-family="Arial" font-size="11.00">EVAL STEP</text>
<text xml:space="preserve" text-anchor="middle" x="807.77" y="-81.7" font-family="Arial" font-size="11.00">• validation loss</text>
<text xml:space="preserve" text-anchor="middle" x="807.77" y="-68.5" font-family="Arial" font-size="11.00">• y_true, y_pred</text>
</g>
<!-- train_loop&#45;&gt;eval_step_node -->
<g id="edge4" class="edge">
<title>train_loop&#45;&gt;eval_step_node</title>
<path fill="none" stroke="#2e7d32" stroke-width="2" d="M706.86,-59.1C719.9,-62.48 733.13,-65.91 745.51,-69.12"/>
<polygon fill="#2e7d32" stroke="#2e7d32" stroke-width="2" points="744.57,-72.49 755.13,-71.61 746.33,-65.72 744.57,-72.49"/>
</g>
<!-- loss_curve -->
<g id="node8" class="node">
<title>loss_curve</title>
<polygon fill="#fffde7" stroke="black" points="866.02,-43 743.52,-43 743.52,-7 872.02,-7 872.02,-37 866.02,-43"/>
<polyline fill="none" stroke="black" points="866.02,-43 866.02,-37"/>
<polyline fill="none" stroke="black" points="872.02,-37 866.02,-37"/>
<text xml:space="preserve" text-anchor="middle" x="807.77" y="-28.3" font-family="Arial" font-size="11.00">График обучения</text>
<text xml:space="preserve" text-anchor="middle" x="807.77" y="-15.1" font-family="Arial" font-size="11.00">models/loss_curve.png</text>
</g>
<!-- train_loop&#45;&gt;loss_curve -->
<g id="edge7" class="edge">
<title>train_loop&#45;&gt;loss_curve</title>
<path fill="none" stroke="#2e7d32" stroke-width="2" d="M706.86,-31.47C714.71,-30.97 722.62,-30.45 730.38,-29.95"/>
<polygon fill="#2e7d32" stroke="#2e7d32" stroke-width="2" points="730.48,-33.45 740.23,-29.31 730.03,-26.47 730.48,-33.45"/>
</g>
<!-- metrics -->
<g id="node6" class="node">
<title>metrics</title>
<path fill="#e1f5fe" stroke="black" d="M1155.36,-149.8C1155.36,-149.8 1066.17,-149.8 1066.17,-149.8 1060.17,-149.8 1054.17,-143.8 1054.17,-137.8 1054.17,-137.8 1054.17,-114.2 1054.17,-114.2 1054.17,-108.2 1060.17,-102.2 1066.17,-102.2 1066.17,-102.2 1155.36,-102.2 1155.36,-102.2 1161.36,-102.2 1167.36,-108.2 1167.36,-114.2 1167.36,-114.2 1167.36,-137.8 1167.36,-137.8 1167.36,-143.8 1161.36,-149.8 1155.36,-149.8"/>
<text xml:space="preserve" text-anchor="middle" x="1110.77" y="-135.9" font-family="Arial" font-size="11.00">Метрики</text>
<text xml:space="preserve" text-anchor="middle" x="1110.77" y="-122.7" font-family="Arial" font-size="11.00">MAE / RMSE</text>
<text xml:space="preserve" text-anchor="middle" x="1110.77" y="-109.5" font-family="Arial" font-size="11.00">models/metrics.json</text>
</g>
<!-- eval_step_node&#45;&gt;metrics -->
<g id="edge5" class="edge">
<title>eval_step_node&#45;&gt;metrics</title>
<path fill="none" stroke="#2e7d32" stroke-width="2" d="M857.47,-91.63C907.25,-98.41 985,-109.01 1041.04,-116.64"/>
<polygon fill="#2e7d32" stroke="#2e7d32" stroke-width="2" points="1040.34,-120.07 1050.72,-117.96 1041.28,-113.14 1040.34,-120.07"/>
</g>
<!-- predictions -->
<g id="node7" class="node">
<title>predictions</title>
<polygon fill="#fff8e1" stroke="black" points="1186.14,-84 1029.39,-84 1029.39,-2 1192.14,-2 1192.14,-78 1186.14,-84"/>
<polyline fill="none" stroke="black" points="1186.14,-84 1186.14,-78"/>
<polyline fill="none" stroke="black" points="1192.14,-78 1186.14,-78"/>
<polygon fill="none" stroke="black" points="1038.39,-61 1038.39,-79 1183.14,-79 1183.14,-61 1038.39,-61"/>
<text xml:space="preserve" text-anchor="start" x="1071.87" y="-68" font-family="Arial" font-weight="bold" font-size="10.00">Test Predictions</text>
<polygon fill="none" stroke="black" points="1038.39,-43 1038.39,-61 1095.54,-61 1095.54,-43 1038.39,-43"/>
<text xml:space="preserve" text-anchor="start" x="1056.69" y="-50" font-family="Arial" font-weight="bold" font-size="10.00">date</text>
<polygon fill="none" stroke="black" points="1095.54,-43 1095.54,-61 1129.35,-61 1129.35,-43 1095.54,-43"/>
<text xml:space="preserve" text-anchor="start" x="1103.55" y="-50" font-family="Arial" font-weight="bold" font-size="10.00">real</text>
<polygon fill="none" stroke="black" points="1129.35,-43 1129.35,-61 1183.14,-61 1183.14,-43 1129.35,-43"/>
<text xml:space="preserve" text-anchor="start" x="1132.35" y="-50" font-family="Arial" font-weight="bold" font-size="10.00">lstm_pred</text>
<polygon fill="none" stroke="black" points="1038.39,-25 1038.39,-43 1095.54,-43 1095.54,-25 1038.39,-25"/>
<text xml:space="preserve" text-anchor="start" x="1041.39" y="-31" font-family="Arial" font-size="10.00">2025&#45;12&#45;01</text>
<polygon fill="none" stroke="black" points="1095.54,-25 1095.54,-43 1129.35,-43 1129.35,-25 1095.54,-25"/>
<text xml:space="preserve" text-anchor="start" x="1098.54" y="-31" font-family="Arial" font-size="10.00">12520</text>
<polygon fill="none" stroke="black" points="1129.35,-25 1129.35,-43 1183.14,-43 1183.14,-25 1129.35,-25"/>
<text xml:space="preserve" text-anchor="start" x="1142.34" y="-31" font-family="Arial" font-size="10.00">12518</text>
<polygon fill="none" stroke="black" points="1038.39,-7 1038.39,-25 1095.54,-25 1095.54,-7 1038.39,-7"/>
<text xml:space="preserve" text-anchor="start" x="1041.39" y="-13" font-family="Arial" font-size="10.00">2025&#45;12&#45;02</text>
<polygon fill="none" stroke="black" points="1095.54,-7 1095.54,-25 1129.35,-25 1129.35,-7 1095.54,-7"/>
<text xml:space="preserve" text-anchor="start" x="1098.54" y="-13" font-family="Arial" font-size="10.00">12525</text>
<polygon fill="none" stroke="black" points="1129.35,-7 1129.35,-25 1183.14,-25 1183.14,-7 1129.35,-7"/>
<text xml:space="preserve" text-anchor="start" x="1142.34" y="-13" font-family="Arial" font-size="10.00">12522</text>
<polygon fill="none" stroke="black" points="1037.39,-6 1037.39,-80 1184.14,-80 1184.14,-6 1037.39,-6"/>
</g>
<!-- eval_step_node&#45;&gt;predictions -->
<g id="edge6" class="edge">
<title>eval_step_node&#45;&gt;predictions</title>
<path fill="none" stroke="#2e7d32" stroke-width="2" d="M857.47,-78.21C900.28,-72.23 963.77,-63.37 1016.35,-56.03"/>
<polygon fill="#2e7d32" stroke="#2e7d32" stroke-width="2" points="1016.7,-59.52 1026.12,-54.67 1015.73,-52.59 1016.7,-59.52"/>
<text xml:space="preserve" text-anchor="middle" x="950.71" y="-76.79" font-family="Arial" font-size="14.00">inverse_transform()</text>
</g>
</g>
</svg>
